<svg width="21" height="20" viewBox="0 0 21 20" fill="none" xmlns="http://www.w3.org/2000/svg">
<g id="calender-date (5) 1">
<path id="Vector" d="M16.3333 3.33332H14.6667V2.49999C14.6667 2.03999 14.2933 1.66666 13.8333 1.66666C13.3733 1.66666 13 2.03999 13 2.49999V3.33332H7.99999V2.49999C7.99999 2.03999 7.62666 1.66666 7.16666 1.66666C6.70666 1.66666 6.33332 2.03999 6.33332 2.49999V3.33332H4.66666C3.28666 3.33499 2.16832 4.45332 2.16666 5.83332V15C2.16832 16.38 3.28666 17.4983 4.66666 17.5H16.3333C17.7133 17.4983 18.8317 16.38 18.8333 15V5.83332C18.8317 4.45332 17.7133 3.33499 16.3333 3.33332ZM17.1667 15C17.1658 15.46 16.7933 15.8325 16.3333 15.8333H4.66666C4.20666 15.8325 3.83416 15.46 3.83332 15V5.83332C3.83416 5.37332 4.20666 5.00082 4.66666 4.99999H6.33332V5.83332C6.33332 6.29332 6.70666 6.66666 7.16666 6.66666C7.62666 6.66666 7.99999 6.29332 7.99999 5.83332V4.99999H13V5.83332C13 6.29332 13.3733 6.66666 13.8333 6.66666C14.2933 6.66666 14.6667 6.29332 14.6667 5.83332V4.99999H16.3333C16.7933 5.00082 17.1658 5.37332 17.1667 5.83332V15ZM7.16666 9.99999C6.70582 9.99832 6.33332 9.62416 6.33332 9.16332C6.33332 8.93416 6.42582 8.72582 6.57499 8.57499C6.72999 8.43166 6.93832 8.34332 7.16666 8.34332C7.39499 8.34332 7.60332 8.43166 7.75916 8.57499L7.75832 8.57416C7.79166 8.61582 7.82499 8.65749 7.85832 8.69916C7.88749 8.74249 7.91332 8.79166 7.93166 8.84499L7.93332 8.84916C7.95582 8.89249 7.97332 8.94249 7.98249 8.99582L7.98332 8.99916C7.99249 9.04832 7.99916 9.10582 7.99999 9.16499C7.99999 9.16749 7.99999 9.17166 7.99999 9.17416C7.99999 9.62999 7.63082 9.99916 7.17499 9.99916C7.17166 9.99916 7.16916 9.99916 7.16582 9.99916L7.16666 9.99999ZM10.5 9.99999C10.27 9.99832 10.0617 9.90666 9.90832 9.75832C9.76166 9.60416 9.66999 9.39666 9.66666 9.16749V9.16666C9.66832 9.05166 9.69249 8.94332 9.73499 8.84499L9.73249 8.84999C9.77499 8.74332 9.83416 8.65249 9.90749 8.57499C10.0625 8.43166 10.2708 8.34332 10.4992 8.34332C10.7275 8.34332 10.9358 8.43166 11.0917 8.57499L11.0908 8.57416C11.1617 8.65249 11.2208 8.74332 11.2633 8.84249L11.2658 8.84916C11.3067 8.94249 11.3308 9.05082 11.3325 9.16499C11.3308 9.22499 11.325 9.28332 11.3142 9.33916L11.315 9.33249C11.305 9.38832 11.2875 9.43916 11.2633 9.48499L11.265 9.48249C11.2467 9.53666 11.2217 9.58416 11.1892 9.62499L11.19 9.62416C11.1567 9.67416 11.1233 9.71582 11.09 9.75749C10.9367 9.90499 10.7283 9.99666 10.4992 9.99916L10.5 9.99999ZM13.8333 9.99999C13.6033 9.99832 13.395 9.90666 13.2417 9.75832C13.205 9.71916 13.1725 9.67499 13.1433 9.62832L13.1417 9.62499C13.11 9.58499 13.0842 9.53749 13.0675 9.48666L13.0667 9.48332C13.0442 9.43999 13.0267 9.38999 13.0167 9.33666L13.0158 9.33332C13.0067 9.28416 13.0008 9.22666 13 9.16832V9.16666C13 9.16082 13 9.15416 13 9.14749C13 9.03916 13.025 8.93749 13.0683 8.84582L13.0667 8.84999C13.1117 8.74416 13.1708 8.65332 13.2425 8.57416L13.2417 8.57499C13.3933 8.42499 13.6017 8.33332 13.8317 8.33332C13.8908 8.33332 13.9492 8.33916 14.005 8.35166L13.9992 8.35082C14.0558 8.36082 14.1058 8.37832 14.1525 8.40249L14.1492 8.40082C14.2067 8.42082 14.2558 8.44582 14.3017 8.47749L14.2992 8.47582C14.3458 8.50916 14.3867 8.54166 14.425 8.57666L14.4242 8.57582C14.4975 8.65332 14.5567 8.74416 14.5975 8.84499L14.5992 8.85082C14.64 8.94416 14.6642 9.05249 14.6658 9.16666V9.16749C14.665 9.22749 14.6583 9.28499 14.6483 9.34082L14.6492 9.33416C14.6392 9.39082 14.6217 9.44082 14.5975 9.48666L14.5992 9.48416C14.5808 9.53832 14.5558 9.58582 14.5233 9.62666L14.5242 9.62582C14.4908 9.67582 14.4575 9.71749 14.4242 9.75916C14.3825 9.79249 14.34 9.82582 14.2992 9.85916C14.2558 9.88916 14.2067 9.91416 14.1533 9.93249L14.1492 9.93416C14.1058 9.95666 14.0558 9.97416 14.0025 9.98332L13.9992 9.98416C13.95 9.99332 13.8925 9.99916 13.8342 10.0008H13.8325L13.8333 9.99999ZM7.16666 13.3333C7.10666 13.3317 7.04916 13.3258 6.99332 13.3158L6.99999 13.3167C6.94332 13.3067 6.89332 13.2892 6.84666 13.265L6.84999 13.2667C6.79249 13.2467 6.74249 13.2217 6.69749 13.19L6.69999 13.1917C6.65832 13.1589 6.61666 13.1255 6.57499 13.0917C6.42249 12.94 6.32749 12.73 6.32749 12.4975C6.32749 12.035 6.70249 11.6608 7.16416 11.6608C7.39666 11.6608 7.60666 11.7558 7.75832 11.9083C7.79166 11.95 7.82499 11.9917 7.85832 12.0417C7.88999 12.0825 7.91499 12.1292 7.93249 12.18L7.93332 12.1833C7.95582 12.2267 7.97332 12.2775 7.98249 12.33L7.98332 12.3333C7.99249 12.3825 7.99916 12.44 7.99999 12.4992V12.5C7.99999 12.5025 7.99999 12.5058 7.99999 12.5083C7.99999 12.9642 7.63082 13.3333 7.17499 13.3333C7.17166 13.3333 7.16999 13.3333 7.16666 13.3333ZM10.5 13.3333C10.27 13.3317 10.0617 13.24 9.90832 13.0917C9.76166 12.9375 9.66999 12.73 9.66666 12.5008V12.5C9.66832 12.385 9.69249 12.2767 9.73499 12.1783L9.73249 12.1833C9.77499 12.0767 9.83416 11.9858 9.90749 11.9083C10.0625 11.765 10.2708 11.6767 10.4992 11.6767C10.7275 11.6767 10.9358 11.765 11.0917 11.9083L11.0908 11.9075C11.1617 11.9858 11.2208 12.0767 11.2633 12.1758L11.2658 12.1825C11.3067 12.2758 11.3308 12.3842 11.3325 12.4983C11.3308 12.5583 11.3242 12.6167 11.3142 12.6725L11.315 12.6658C11.305 12.7217 11.2875 12.7725 11.2633 12.8183L11.265 12.8158C11.2467 12.87 11.2217 12.9167 11.1892 12.9583L11.19 12.9575C11.1567 13.0075 11.1233 13.0492 11.09 13.0908C10.9367 13.2383 10.7283 13.33 10.4992 13.3325L10.5 13.3333ZM13.8333 13.3333C13.6033 13.3317 13.395 13.24 13.2417 13.0917C13.095 12.9375 13.0033 12.73 13 12.5008V12.5C13.0025 12.4392 13.0083 12.3817 13.0175 12.3258L13.0167 12.3333C13.0267 12.2767 13.045 12.2267 13.0683 12.18L13.0667 12.1833C13.0842 12.1292 13.11 12.0817 13.1425 12.0408L13.1417 12.0417C13.1717 11.9917 13.205 11.9475 13.2425 11.9075L13.2417 11.9083C13.3933 11.7583 13.6017 11.6667 13.8317 11.6667C13.8908 11.6667 13.9492 11.6725 14.005 11.685L13.9992 11.6842C14.0558 11.6942 14.1058 11.7117 14.1525 11.7358L14.1492 11.7342C14.2067 11.7542 14.2558 11.7792 14.3017 11.8108L14.2992 11.8092C14.3408 11.8425 14.3833 11.8758 14.4242 11.9092C14.5708 12.0633 14.6617 12.2708 14.665 12.5V12.5008C14.6633 12.6158 14.6392 12.7242 14.5967 12.8225L14.5992 12.8175C14.5542 12.9233 14.495 13.0142 14.4233 13.0933L14.4242 13.0925C14.3825 13.1258 14.34 13.1592 14.2992 13.1925C14.2558 13.2225 14.2067 13.2475 14.1533 13.2658L14.1492 13.2675C14.1058 13.29 14.0558 13.3075 14.0025 13.3167L13.9992 13.3175C13.95 13.3267 13.8925 13.3325 13.8342 13.3342H13.8325L13.8333 13.3333Z" fill="white"/>
</g>
</svg>
