<svg width="20" height="20" viewBox="0 0 20 20" fill="none" xmlns="http://www.w3.org/2000/svg">
<g id="sort 1">
<path id="Vector" d="M10 17.5H9.99916C9.76916 17.5 9.56167 17.4067 9.41083 17.2558L4.41083 12.2558C4.26 12.105 4.16666 11.8967 4.16666 11.6667C4.16666 11.2067 4.54 10.8333 5 10.8333H15C15.46 10.8333 15.8333 11.2067 15.8333 11.6667C15.8333 11.8967 15.74 12.105 15.5892 12.2558L10.5892 17.2558C10.4392 17.4067 10.2308 17.5 10.0008 17.5H10ZM7.01166 12.5L10 15.4883L12.9883 12.5H7.01166ZM15 9.16667H5C4.54 9.16667 4.16666 8.79333 4.16666 8.33333C4.16666 8.10333 4.26 7.895 4.41083 7.74417L9.41083 2.74417C9.56167 2.59333 9.77 2.5 10 2.5C10.23 2.5 10.4383 2.59333 10.5892 2.74417L15.5892 7.74417C15.74 7.895 15.8333 8.10333 15.8333 8.33333C15.8333 8.79333 15.46 9.16667 15 9.16667ZM7.01166 7.5H12.9883L10 4.51167L7.01166 7.5Z" fill="white"/>
</g>
</svg>
