<svg width="12" height="20" viewBox="0 0 12 20" fill="none" xmlns="http://www.w3.org/2000/svg">
<path id="Vector" d="M1.02819 1.05922C0.764555 1.32293 0.616455 1.68055 0.616455 2.05344C0.616455 2.42633 0.764555 2.78395 1.02819 3.04766L7.98912 10.0086L1.02819 16.9695C0.772026 17.2348 0.630284 17.59 0.633488 17.9587C0.636692 18.3274 0.784586 18.6801 1.04532 18.9408C1.30605 19.2016 1.65875 19.3495 2.02747 19.3527C2.39618 19.3559 2.7514 19.2141 3.01662 18.958L10.9718 11.0028C11.2354 10.7391 11.3835 10.3815 11.3835 10.0086C11.3835 9.63571 11.2354 9.27809 10.9718 9.01438L3.01662 1.05922C2.75291 0.795591 2.39529 0.647491 2.0224 0.647491C1.64952 0.647491 1.2919 0.795591 1.02819 1.05922Z" fill="#BD1F17"/>
</svg>
