<svg width="12" height="20" viewBox="0 0 12 20" fill="none" xmlns="http://www.w3.org/2000/svg">
<path id="Vector" d="M10.9718 18.941C11.2354 18.6773 11.3835 18.3197 11.3835 17.9468C11.3835 17.5739 11.2354 17.2163 10.9718 16.9526L4.01088 9.99161L10.9718 3.03068C11.228 2.76545 11.3697 2.41023 11.3665 2.04152C11.3633 1.6728 11.2154 1.3201 10.9547 1.05937C10.694 0.798637 10.3413 0.650745 9.97254 0.647541C9.60382 0.644337 9.2486 0.786079 8.98338 1.04224L1.02822 8.9974C0.764588 9.26111 0.616488 9.61873 0.616488 9.99161C0.616488 10.3645 0.764588 10.7221 1.02822 10.9858L8.98338 18.941C9.24709 19.2046 9.60471 19.3527 9.9776 19.3527C10.3505 19.3527 10.7081 19.2046 10.9718 18.941Z" fill="#0A1425"/>
</svg>
